<mxfile host="app.diagrams.net" modified="2023-04-12T03:54:18.655Z" agent="5.0 (Macintosh; Intel Mac OS X 10_15_7) AppleWebKit/537.36 (KHTML, like Gecko) Chrome/111.0.0.0 Safari/537.36" etag="k192Ow_IGxcx1I8UQ4z2" version="20.4.0" type="github">
  <diagram id="C5RBs43oDa-KdzZeNtuy" name="Page-1">
    <mxGraphModel dx="1773" dy="507" grid="1" gridSize="10" guides="1" tooltips="1" connect="1" arrows="1" fold="1" page="1" pageScale="1" pageWidth="827" pageHeight="1169" math="0" shadow="0">
      <root>
        <mxCell id="WIyWlLk6GJQsqaUBKTNV-0" />
        <mxCell id="WIyWlLk6GJQsqaUBKTNV-1" parent="WIyWlLk6GJQsqaUBKTNV-0" />
        <mxCell id="3pRZeUomV-_jTDMupkCG-2" value="" style="edgeStyle=orthogonalEdgeStyle;orthogonalLoop=1;jettySize=auto;html=1;fontSize=18;" edge="1" parent="WIyWlLk6GJQsqaUBKTNV-1" source="3pRZeUomV-_jTDMupkCG-0" target="3pRZeUomV-_jTDMupkCG-1">
          <mxGeometry relative="1" as="geometry" />
        </mxCell>
        <mxCell id="3pRZeUomV-_jTDMupkCG-3" style="edgeStyle=orthogonalEdgeStyle;orthogonalLoop=1;jettySize=auto;html=1;exitX=0.5;exitY=1;exitDx=0;exitDy=0;fontSize=18;rounded=0;entryX=0.5;entryY=0;entryDx=0;entryDy=0;" edge="1" parent="WIyWlLk6GJQsqaUBKTNV-1" source="3pRZeUomV-_jTDMupkCG-0" target="3pRZeUomV-_jTDMupkCG-4">
          <mxGeometry relative="1" as="geometry">
            <mxPoint x="532.5" y="150" as="targetPoint" />
            <Array as="points">
              <mxPoint x="398" y="110" />
              <mxPoint x="528" y="110" />
            </Array>
          </mxGeometry>
        </mxCell>
        <mxCell id="3pRZeUomV-_jTDMupkCG-6" style="edgeStyle=orthogonalEdgeStyle;rounded=0;orthogonalLoop=1;jettySize=auto;html=1;exitX=0.5;exitY=1;exitDx=0;exitDy=0;entryX=0.5;entryY=0;entryDx=0;entryDy=0;fontSize=18;" edge="1" parent="WIyWlLk6GJQsqaUBKTNV-1" source="3pRZeUomV-_jTDMupkCG-0" target="3pRZeUomV-_jTDMupkCG-5">
          <mxGeometry relative="1" as="geometry" />
        </mxCell>
        <mxCell id="3pRZeUomV-_jTDMupkCG-0" value="&lt;b&gt;&lt;font style=&quot;font-size: 18px;&quot;&gt;Init&lt;/font&gt;&lt;/b&gt;" style="whiteSpace=wrap;html=1;" vertex="1" parent="WIyWlLk6GJQsqaUBKTNV-1">
          <mxGeometry x="352.5" y="20" width="90" height="50" as="geometry" />
        </mxCell>
        <mxCell id="3pRZeUomV-_jTDMupkCG-12" style="edgeStyle=orthogonalEdgeStyle;rounded=0;orthogonalLoop=1;jettySize=auto;html=1;exitX=0.5;exitY=1;exitDx=0;exitDy=0;fontSize=18;entryX=0.5;entryY=0;entryDx=0;entryDy=0;" edge="1" parent="WIyWlLk6GJQsqaUBKTNV-1" source="3pRZeUomV-_jTDMupkCG-1" target="3pRZeUomV-_jTDMupkCG-7">
          <mxGeometry relative="1" as="geometry">
            <mxPoint x="397.5" y="330" as="targetPoint" />
          </mxGeometry>
        </mxCell>
        <mxCell id="3pRZeUomV-_jTDMupkCG-1" value="&lt;span style=&quot;font-size: 18px;&quot;&gt;&lt;b&gt;Phi&lt;br&gt;前向运算&lt;br&gt;&lt;/b&gt;&lt;/span&gt;" style="whiteSpace=wrap;html=1;" vertex="1" parent="WIyWlLk6GJQsqaUBKTNV-1">
          <mxGeometry x="352.5" y="150" width="90" height="50" as="geometry" />
        </mxCell>
        <mxCell id="3pRZeUomV-_jTDMupkCG-13" style="edgeStyle=orthogonalEdgeStyle;rounded=0;orthogonalLoop=1;jettySize=auto;html=1;exitX=0.5;exitY=1;exitDx=0;exitDy=0;entryX=0.5;entryY=0;entryDx=0;entryDy=0;fontSize=18;" edge="1" parent="WIyWlLk6GJQsqaUBKTNV-1" source="3pRZeUomV-_jTDMupkCG-4" target="3pRZeUomV-_jTDMupkCG-7">
          <mxGeometry relative="1" as="geometry" />
        </mxCell>
        <mxCell id="3pRZeUomV-_jTDMupkCG-4" value="&lt;span style=&quot;font-size: 18px;&quot;&gt;&lt;b&gt;Static&lt;br&gt;静态图&lt;br&gt;&lt;/b&gt;&lt;/span&gt;" style="whiteSpace=wrap;html=1;" vertex="1" parent="WIyWlLk6GJQsqaUBKTNV-1">
          <mxGeometry x="482.5" y="150" width="90" height="50" as="geometry" />
        </mxCell>
        <mxCell id="3pRZeUomV-_jTDMupkCG-11" style="edgeStyle=orthogonalEdgeStyle;rounded=0;orthogonalLoop=1;jettySize=auto;html=1;exitX=0.5;exitY=1;exitDx=0;exitDy=0;entryX=0.5;entryY=0;entryDx=0;entryDy=0;fontSize=18;" edge="1" parent="WIyWlLk6GJQsqaUBKTNV-1" source="3pRZeUomV-_jTDMupkCG-5" target="3pRZeUomV-_jTDMupkCG-7">
          <mxGeometry relative="1" as="geometry" />
        </mxCell>
        <mxCell id="3pRZeUomV-_jTDMupkCG-5" value="&lt;span style=&quot;font-size: 18px;&quot;&gt;&lt;b&gt;Eager&lt;br&gt;动态图&lt;br&gt;&lt;/b&gt;&lt;/span&gt;" style="whiteSpace=wrap;html=1;" vertex="1" parent="WIyWlLk6GJQsqaUBKTNV-1">
          <mxGeometry x="222.5" y="150" width="90" height="50" as="geometry" />
        </mxCell>
        <mxCell id="3pRZeUomV-_jTDMupkCG-7" value="OperantsManager" style="swimlane;fontStyle=0;childLayout=stackLayout;horizontal=1;startSize=26;fillColor=#f8cecc;horizontalStack=0;resizeParent=1;resizeParentMax=0;resizeLast=0;collapsible=1;marginBottom=0;fontSize=18;strokeColor=#b85450;" vertex="1" parent="WIyWlLk6GJQsqaUBKTNV-1">
          <mxGeometry x="220" y="286" width="355" height="104" as="geometry" />
        </mxCell>
        <mxCell id="3pRZeUomV-_jTDMupkCG-8" value="+ eager_operants: TensorOperantsBase" style="text;strokeColor=#d6b656;fillColor=#fff2cc;align=left;verticalAlign=top;spacingLeft=4;spacingRight=4;overflow=hidden;rotatable=0;points=[[0,0.5],[1,0.5]];portConstraint=eastwest;fontSize=18;" vertex="1" parent="3pRZeUomV-_jTDMupkCG-7">
          <mxGeometry y="26" width="355" height="26" as="geometry" />
        </mxCell>
        <mxCell id="3pRZeUomV-_jTDMupkCG-9" value="+ static_operants: TensorOperantsBase" style="text;strokeColor=#d6b656;fillColor=#fff2cc;align=left;verticalAlign=top;spacingLeft=4;spacingRight=4;overflow=hidden;rotatable=0;points=[[0,0.5],[1,0.5]];portConstraint=eastwest;fontSize=18;" vertex="1" parent="3pRZeUomV-_jTDMupkCG-7">
          <mxGeometry y="52" width="355" height="26" as="geometry" />
        </mxCell>
        <mxCell id="3pRZeUomV-_jTDMupkCG-10" value="+ phi_operants: TensorOperantsBase" style="text;strokeColor=#d6b656;fillColor=#fff2cc;align=left;verticalAlign=top;spacingLeft=4;spacingRight=4;overflow=hidden;rotatable=0;points=[[0,0.5],[1,0.5]];portConstraint=eastwest;fontSize=18;" vertex="1" parent="3pRZeUomV-_jTDMupkCG-7">
          <mxGeometry y="78" width="355" height="26" as="geometry" />
        </mxCell>
        <mxCell id="3pRZeUomV-_jTDMupkCG-18" value="Phi" style="shape=module;align=left;spacingLeft=20;align=center;verticalAlign=top;fontSize=18;" vertex="1" parent="WIyWlLk6GJQsqaUBKTNV-1">
          <mxGeometry x="-80" y="440" width="480" height="250" as="geometry" />
        </mxCell>
        <mxCell id="3pRZeUomV-_jTDMupkCG-19" value="Framework" style="shape=module;align=left;spacingLeft=20;align=center;verticalAlign=top;fontSize=18;" vertex="1" parent="WIyWlLk6GJQsqaUBKTNV-1">
          <mxGeometry x="460" y="440" width="660" height="250" as="geometry" />
        </mxCell>
        <mxCell id="3pRZeUomV-_jTDMupkCG-20" value="«interface»&lt;br&gt;&lt;b&gt;TensorOperantsBase&lt;/b&gt;" style="html=1;fontSize=18;fillColor=#f8cecc;strokeColor=#b85450;" vertex="1" parent="WIyWlLk6GJQsqaUBKTNV-1">
          <mxGeometry x="180" y="480" width="202.5" height="50" as="geometry" />
        </mxCell>
        <mxCell id="3pRZeUomV-_jTDMupkCG-29" value="PhiTensorOperants:&amp;nbsp;TensorOperantsBase" style="html=1;fontSize=18;fillColor=#dae8fc;strokeColor=#6c8ebf;" vertex="1" parent="WIyWlLk6GJQsqaUBKTNV-1">
          <mxGeometry x="35" y="570" width="350" height="50" as="geometry" />
        </mxCell>
        <mxCell id="3pRZeUomV-_jTDMupkCG-30" value="EagerTensorOperants:&amp;nbsp;TensorOperantsBase" style="html=1;fontSize=18;fillColor=#dae8fc;strokeColor=#6c8ebf;" vertex="1" parent="WIyWlLk6GJQsqaUBKTNV-1">
          <mxGeometry x="482.5" y="490" width="367.5" height="50" as="geometry" />
        </mxCell>
        <mxCell id="3pRZeUomV-_jTDMupkCG-31" value="StaticTensorOperants:&amp;nbsp;TensorOperantsBase" style="html=1;fontSize=18;fillColor=#dae8fc;strokeColor=#6c8ebf;" vertex="1" parent="WIyWlLk6GJQsqaUBKTNV-1">
          <mxGeometry x="482.5" y="570" width="367.5" height="50" as="geometry" />
        </mxCell>
      </root>
    </mxGraphModel>
  </diagram>
</mxfile>
